<svg xmlns="http://www.w3.org/2000/svg" viewBox="0 0 24 24"><path d="M4.248 3.115h1.904v1.904h-1.904zM17.848 3.115h1.904v1.904h-1.904zM4.248 5.381h1.904v1.904h-1.904zM6.515 5.381h1.904v1.904h-1.904zM15.581 5.381h1.904v1.904h-1.904zM17.848 5.381h1.904v1.904h-1.904zM4.248 7.648h1.904v1.904h-1.904zM6.515 7.648h1.904v1.904h-1.904zM8.781 7.648h1.904v1.904h-1.904zM13.315 7.648h1.904v1.904h-1.904zM15.581 7.648h1.904v1.904h-1.904zM17.848 7.648h1.904v1.904h-1.904zM4.248 9.915h1.904v1.904h-1.904zM6.515 9.915h1.904v1.904h-1.904zM8.781 9.915h1.904v1.904h-1.904zM11.048 9.915h1.904v1.904h-1.904zM13.315 9.915h1.904v1.904h-1.904zM15.581 9.915h1.904v1.904h-1.904zM17.848 9.915h1.904v1.904h-1.904zM4.248 12.181h1.904v1.904h-1.904zM8.781 12.181h1.904v1.904h-1.904zM11.048 12.181h1.904v1.904h-1.904zM13.315 12.181h1.904v1.904h-1.904zM17.848 12.181h1.904v1.904h-1.904zM1.981 14.448h1.904v1.904h-1.904zM4.248 14.448h1.904v1.904h-1.904zM6.515 14.448h1.904v1.904h-1.904zM8.781 14.448h1.904v1.904h-1.904zM11.048 14.448h1.904v1.904h-1.904zM13.315 14.448h1.904v1.904h-1.904zM15.581 14.448h1.904v1.904h-1.904zM17.848 14.448h1.904v1.904h-1.904zM20.115 14.448h1.904v1.904h-1.904zM6.515 16.715h1.904v1.904h-1.904zM8.781 16.715h1.904v1.904h-1.904zM11.048 16.715h1.904v1.904h-1.904zM13.315 16.715h1.904v1.904h-1.904zM15.581 16.715h1.904v1.904h-1.904zM8.781 18.981h1.904v1.904h-1.904zM11.048 18.981h1.904v1.904h-1.904zM13.315 18.981h1.904v1.904h-1.904z" fill="currentColor"/></svg>